<svg xmlns="http://www.w3.org/2000/svg" width="15" height="15" viewBox="0 0 15 15">
  <metadata><?xpacket begin="﻿" id="W5M0MpCehiHzreSzNTczkc9d"?>
<x:xmpmeta xmlns:x="adobe:ns:meta/" x:xmptk="Adobe XMP Core 5.6-c138 79.159824, 2016/09/14-01:09:01        ">
   <rdf:RDF xmlns:rdf="http://www.w3.org/1999/02/22-rdf-syntax-ns#">
      <rdf:Description rdf:about=""/>
   </rdf:RDF>
</x:xmpmeta>
                                                                                                    
                                                                                                    
                                                                                                    
                                                                                                    
                                                                                                    
                                                                                                    
                                                                                                    
                                                                                                    
                                                                                                    
                                                                                                    
                                                                                                    
                                                                                                    
                                                                                                    
                                                                                                    
                                                                                                    
                                                                                                    
                                                                                                    
                                                                                                    
                                                                                                    
                                                                                                    
                           
<?xpacket end="w"?></metadata>
<defs>
    <style>
      .cls-1 {
        fill-opacity: 0;
        stroke: #6a625a;
        stroke-linejoin: round;
        stroke-width: 1px;
        fill-rule: evenodd;
      }
    </style>
  </defs>
  <path id="Forma_1" data-name="Forma 1" class="cls-1" d="M1181.99,28.048a0.693,0.693,0,0,1-.2.593l-1.98,1.958a1,1,0,0,1-.34.252,1.53,1.53,0,0,1-.43.133l-0.09.007a1.737,1.737,0,0,1-.19.008,6.83,6.83,0,0,1-.91-0.1,6.945,6.945,0,0,1-1.54-.475,12.873,12.873,0,0,1-2.07-1.134,15.484,15.484,0,0,1-2.46-2.077,16.883,16.883,0,0,1-1.72-1.957,13.59,13.59,0,0,1-1.09-1.728,9.25,9.25,0,0,1-.63-1.439,7.473,7.473,0,0,1-.28-1.112,3.634,3.634,0,0,1-.06-0.734c0.01-.178.02-0.277,0.02-0.3a1.418,1.418,0,0,1,.13-0.422,1.105,1.105,0,0,1,.25-0.349l1.97-1.972a0.665,0.665,0,0,1,.48-0.208,0.549,0.549,0,0,1,.34.111,1.014,1.014,0,0,1,.25.274l1.59,3.011a0.713,0.713,0,0,1,.07.519,0.91,0.91,0,0,1-.25.474l-0.73.727a0.345,0.345,0,0,0-.05.1,0.588,0.588,0,0,0-.02.111,2.659,2.659,0,0,0,.27.712,6.21,6.21,0,0,0,.54.868,9.578,9.578,0,0,0,1.06,1.179,9.951,9.951,0,0,0,1.18,1.06,7.367,7.367,0,0,0,.87.556,2.309,2.309,0,0,0,.53.215l0.19,0.037a0.284,0.284,0,0,0,.09-0.022,0.23,0.23,0,0,0,.1-0.052l0.84-.86a0.926,0.926,0,0,1,.63-0.237,0.771,0.771,0,0,1,.4.089h0.01l2.86,1.691A0.738,0.738,0,0,1,1181.99,28.048Z" transform="translate(-1167.5 -16.5)"/>
</svg>
